<?xml version="1.0" encoding="utf-8"?>
<!-- Generator: Adobe Illustrator 16.2.1, SVG Export Plug-In . SVG Version: 6.00 Build 0)  -->
<!DOCTYPE svg PUBLIC "-//W3C//DTD SVG 1.1//EN" "http://www.w3.org/Graphics/SVG/1.1/DTD/svg11.dtd">
<svg version="1.1" id="Layer_1" xmlns="http://www.w3.org/2000/svg" xmlns:xlink="http://www.w3.org/1999/xlink" x="0px" y="0px"
	 width="64px" height="64px" viewBox="0 0 64 64" enable-background="new 0 0 64 64" xml:space="preserve">
<g>
	<ellipse opacity="0.1" fill="#444444" cx="32" cy="60" rx="24" ry="4"/>
	<g>
		<path fill="#FFFFFF" d="M52,8c-0.334-2.25-1.791-4-4-4H24.125c0,0,4-1.334,3.625-2.5c-0.478-1.488-4.833,0.375-8.417,1.875
			C20.292,2.333,21.042,1.291,20.917,0c-2.535,0.643-4.683,2.852-5.671,4.073c-0.014,0.003-0.028,0.004-0.041,0.006
			c0.297-0.577,1.03-2.059,0.837-2.829C14.458,2.083,12.583,3.625,12,8L8,42c0,4-4,6-8,2c2,6,6,8,12,8h8.836l-0.817,5.717
			c-0.156,1.094,0.604,2.106,1.697,2.263C21.812,59.993,21.908,60,22.002,60c0.979,0,1.835-0.721,1.978-1.718L24.877,52h13.561
			l1.621,6.484C40.287,59.394,41.102,60,41.998,60c0.16,0,0.324-0.02,0.486-0.061c1.072-0.268,1.723-1.354,1.455-2.425L42.561,52H52
			c2.209,0,4-2,4-4C56,41,52,8,52,8z"/>
		<circle fill="#34A9DE" cx="20" cy="20" r="4"/>
		<circle fill="#34A9DE" cx="44" cy="20" r="4"/>
		<path fill="#1A546F" d="M63.758,14.111c-0.125-0.497-0.46-0.914-0.918-1.144c-4.377-2.188-9.653-2.188-12.807-2.188
			c-0.908,0-11.348,0.604-13.262,2.517c-0.328,0.33-0.514,0.775-0.514,1.24c0,0.203,0.01,0.468,0.029,0.779
			c-1.266-0.266-2.873-0.528-4.287-0.528s-3.021,0.263-4.286,0.528c0.019-0.311,0.028-0.577,0.028-0.779
			c0-0.465-0.185-0.911-0.514-1.24c-1.914-1.913-12.353-2.517-13.262-2.517c-3.153,0-8.429,0-12.807,2.188
			c-0.457,0.229-0.792,0.646-0.917,1.144c-1.128,4.513,1.955,13.177,3.466,14.689c0.134,0.133,0.287,0.243,0.456,0.329
			c2.092,1.045,6.128,1.186,9.801,1.186c4.07,0,9.027-0.286,11.258-2.517c0.133-0.134,0.244-0.288,0.328-0.456
			c0.742-1.483,1.4-5.216,1.796-8.347c1.117-0.277,3.093-0.703,4.65-0.703c1.558,0,3.534,0.426,4.65,0.703
			c0.396,3.131,1.055,6.863,1.797,8.347c0.084,0.168,0.195,0.322,0.328,0.456c2.23,2.23,7.188,2.517,11.258,2.517
			c3.674,0,7.709-0.141,9.802-1.186c0.169-0.085,0.321-0.196,0.456-0.329C61.803,27.288,64.885,18.624,63.758,14.111z
			 M22.537,25.495c-0.767,0.558-2.861,1.313-8.57,1.313c-3.973,0-6.621-0.226-7.888-0.673c-0.834-1.43-2.851-7.104-2.56-10.392
			c3.513-1.458,7.807-1.458,10.448-1.458c2.721,0,8.135,0.742,10.216,1.34C23.977,18.34,23.197,23.74,22.537,25.495z M57.922,26.136
			c-1.268,0.447-3.916,0.673-7.889,0.673c-5.709,0-7.803-0.756-8.57-1.313c-0.659-1.755-1.439-7.155-1.646-9.869
			c2.082-0.598,7.496-1.34,10.217-1.34c2.642,0,6.936,0,10.449,1.458C60.772,19.032,58.756,24.706,57.922,26.136z"/>
	</g>
</g>
</svg>
