<?xml version="1.0" encoding="utf-8"?>
<!-- Generator: Adobe Illustrator 16.2.1, SVG Export Plug-In . SVG Version: 6.00 Build 0)  -->
<!DOCTYPE svg PUBLIC "-//W3C//DTD SVG 1.1//EN" "http://www.w3.org/Graphics/SVG/1.1/DTD/svg11.dtd">
<svg version="1.1" id="Layer_1" xmlns="http://www.w3.org/2000/svg" xmlns:xlink="http://www.w3.org/1999/xlink" x="0px" y="0px"
	 width="256px" height="256px" viewBox="0 0 256 256" enable-background="new 0 0 256 256" xml:space="preserve">
<g>
	<g>
		<path fill="#34A9DE" d="M256,240c0,8.8-7.2,16-16,16H16c-8.8,0-16-7.2-16-16V16C0,7.2,7.2,0,16,0h224c8.8,0,16,7.2,16,16V240z"/>
	</g>
	<g>
		<ellipse opacity="0.1" fill="#444444" cx="128" cy="212" rx="72" ry="12"/>
		<g>
			<path fill="#FFFFFF" d="M188,56c-1.001-6.75-5.373-12-12-12h-71.624c0,0,12-4.002,10.875-7.5
				c-1.434-4.463-14.5,1.125-25.251,5.625c2.875-3.126,5.125-6.252,4.75-10.125c-7.604,1.929-14.048,8.556-17.014,12.218
				c-0.041,0.009-0.083,0.012-0.123,0.019c0.891-1.73,3.091-6.176,2.512-8.487C75.375,38.25,69.75,42.876,68,56L56,158
				c0,12-12,18-24,6c6,18,18,24,36,24h26.509l-2.451,17.15c-0.469,3.279,1.811,6.319,5.09,6.788
				c0.289,0.041,0.574,0.062,0.857,0.062c2.937,0,5.505-2.16,5.933-5.153L106.631,188h40.683l4.863,19.453
				c0.683,2.728,3.129,4.547,5.817,4.547c0.481,0,0.971-0.059,1.459-0.18c3.215-0.805,5.169-4.062,4.366-7.276L159.683,188H188
				c6.627,0,12-6,12-12C200,155,188,56,188,56z"/>
			<circle fill="#34A9DE" cx="92" cy="92" r="12"/>
			<circle fill="#34A9DE" cx="164" cy="92" r="12"/>
			<path fill="#1A546F" d="M223.271,74.334c-0.373-1.491-1.379-2.742-2.751-3.431c-13.132-6.565-28.962-6.565-38.42-6.565
				c-2.728,0-34.044,1.811-39.786,7.55c-0.986,0.989-1.541,2.326-1.541,3.721c0,0.608,0.031,1.405,0.086,2.338
				c-3.793-0.797-8.617-1.585-12.859-1.585s-9.064,0.788-12.858,1.585c0.056-0.933,0.085-1.73,0.085-2.338
				c0-1.395-0.554-2.732-1.541-3.721c-5.741-5.739-37.059-7.55-39.785-7.55c-9.458,0-25.288,0-38.421,6.565
				c-1.371,0.688-2.377,1.939-2.75,3.431c-3.385,13.538,5.864,39.53,10.399,44.068c0.401,0.398,0.861,0.729,1.368,0.986
				c6.277,3.136,18.385,3.558,29.404,3.558c12.209,0,27.082-0.858,33.775-7.55c0.398-0.401,0.732-0.864,0.984-1.368
				c2.225-4.45,4.201-15.647,5.389-25.04c3.35-0.831,9.28-2.109,13.951-2.109c4.673,0,10.603,1.279,13.951,2.109
				c1.189,9.393,3.164,20.59,5.389,25.04c0.254,0.504,0.588,0.967,0.986,1.368c6.692,6.691,21.564,7.55,33.774,7.55
				c11.019,0,23.127-0.422,29.403-3.558c0.506-0.256,0.966-0.587,1.367-0.986C217.406,113.865,226.655,87.873,223.271,74.334z
				 M99.61,108.486c-2.301,1.673-8.583,3.94-25.709,3.94c-11.919,0-19.863-0.677-23.665-2.019
				c-2.503-4.289-8.553-21.312-7.68-31.175c10.538-4.374,23.421-4.374,31.345-4.374c8.164,0,24.406,2.225,30.649,4.02
				C103.93,87.02,101.59,103.221,99.61,108.486z M205.764,110.408c-3.8,1.342-11.745,2.019-23.663,2.019
				c-17.128,0-23.409-2.268-25.711-3.94c-1.979-5.265-4.319-21.466-4.939-29.607c6.243-1.794,22.485-4.02,30.65-4.02
				c7.923,0,20.806,0,31.345,4.374C214.316,89.096,208.269,106.119,205.764,110.408z"/>
		</g>
	</g>
</g>
</svg>
